<svg width="512" height="512" viewBox="0 0 512 512" xmlns="http://www.w3.org/2000/svg">
  <defs>
    <linearGradient id="bosun-grad" x1="0" y1="0" x2="1" y2="1">
      <stop offset="0%" stop-color="#5eead4" />
      <stop offset="55%" stop-color="#38bdf8" />
      <stop offset="100%" stop-color="#60a5fa" />
    </linearGradient>
  </defs>
  <g stroke="url(#bosun-grad)" stroke-width="22" stroke-linecap="round" stroke-linejoin="round" fill="none">
    <circle cx="256" cy="256" r="150" />
    <circle cx="256" cy="256" r="60" />
    <line x1="346" y1="256" x2="406" y2="256" />
    <line x1="166" y1="256" x2="106" y2="256" />
    <line x1="256" y1="346" x2="256" y2="406" />
    <line x1="256" y1="166" x2="256" y2="106" />
    <line x1="320" y1="320" x2="362" y2="362" />
    <line x1="192" y1="320" x2="150" y2="362" />
    <line x1="192" y1="192" x2="150" y2="150" />
    <line x1="320" y1="192" x2="362" y2="150" />
  </g>
  <g fill="url(#bosun-grad)">
    <circle cx="446" cy="256" r="20" />
    <circle cx="66" cy="256" r="20" />
    <circle cx="256" cy="446" r="20" />
    <circle cx="256" cy="66" r="20" />
    <circle cx="390" cy="390" r="18" />
    <circle cx="122" cy="390" r="18" />
    <circle cx="122" cy="122" r="18" />
    <circle cx="390" cy="122" r="18" />
  </g>
</svg>
